<svg xmlns="http://www.w3.org/2000/svg" viewBox="0 0 672.1 171.89"><defs><style>.cls-1{fill:#231f20;}</style></defs><title>logo</title><g id="Layer_2" data-name="Layer 2"><g id="Layer_1-2" data-name="Layer 1"><path class="cls-1" d="M37.67,161.12v9.69H0V120.58H37v9.69H10.76v10H31.21V150H10.76v11.12Z"/><path class="cls-1" d="M48.34,170.81V120.58H59.1v40.54H82.42v9.69Z"/><path class="cls-1" d="M127.79,161.12v9.69H90.12V120.58h36.95v9.69H100.88v10h20.45V150H100.88v11.12Z"/><path class="cls-1" d="M183.3,120.58v50.23H174l-24.76-31.93v31.93H138.46V120.58h9.33l24.75,31.93V120.58Z"/><path class="cls-1" d="M206.3,159,202,170.81H190.51l19.73-50.23h11.48l19.74,50.23H230L225.67,159ZM216,133.14l-6.1,16.5h12.19Z"/><path class="cls-1" d="M249.38,140.31a5.39,5.39,0,1,1-5.74,5.38A5.6,5.6,0,0,1,249.38,140.31Z"/><path class="cls-1" d="M302.71,161.12v9.69H265V120.58H302v9.69H275.81v10h20.45V150H275.81v11.12Z"/><path class="cls-1" d="M313.38,170.81V120.58h10.76v40.54h23.32v9.69Z"/><path class="cls-1" d="M378.77,119.51c15.43,0,27.27,11.83,27.27,26.18s-11.84,26.2-27.27,26.2-27.27-11.84-27.27-26.2S363.34,119.51,378.77,119.51Zm0,42.69a16.51,16.51,0,1,0-16.14-16.51A16.16,16.16,0,0,0,378.77,162.2Z"/><path class="cls-1" d="M409.06,120.58h11.48l12.92,37.31,12.91-37.31h11.48L439.2,170.81H427.72Z"/><path class="cls-1" d="M472.18,159l-4.3,11.84H456.4l19.73-50.23h11.48l19.73,50.23H495.86L491.56,159Zm9.69-25.83-6.1,16.5H488Z"/><path class="cls-1" d="M514.55,120.58h10.76v50.23H514.55Z"/><path class="cls-1" d="M583.28,120.58v50.23H574l-24.76-31.93v31.93H538.43V120.58h9.33l24.76,31.93V120.58Z"/><path class="cls-1" d="M596.56,120.58h10.77v50.23H596.56Z"/><path class="cls-1" d="M644.83,119.51c15.42,0,27.27,11.83,27.27,26.18s-11.85,26.2-27.27,26.2-27.27-11.84-27.27-26.2S629.4,119.51,644.83,119.51Zm0,42.69a16.51,16.51,0,1,0-16.14-16.51A16.16,16.16,0,0,0,644.83,162.2Z"/><rect class="cls-1" x="343.96" y="53.19" width="37.29" height="16.78"/><rect class="cls-1" x="343.96" y="19.63" width="37.29" height="16.78"/><polygon class="cls-1" points="316.91 0 316.91 19.63 279.62 19.63 279.62 36.41 316.91 36.41 316.91 53.19 279.62 53.19 279.62 69.97 316.91 69.97 316.91 89.6 331.05 89.6 331.05 0 316.91 0"/></g></g></svg>