<svg viewBox="0 0 672.1 171.89" xmlns="http://www.w3.org/2000/svg"><g fill="#231f20"><path d="m37.67 161.12v9.69h-37.67v-50.23h37v9.69h-26.24v10h20.45v9.73h-20.45v11.12z"/><path d="m48.34 170.81v-50.23h10.76v40.54h23.32v9.69z"/><path d="m127.79 161.12v9.69h-37.67v-50.23h36.95v9.69h-26.19v10h20.45v9.73h-20.45v11.12z"/><path d="m183.3 120.58v50.23h-9.3l-24.76-31.93v31.93h-10.78v-50.23h9.33l24.75 31.93v-31.93z"/><path d="m206.3 159-4.3 11.81h-11.49l19.73-50.23h11.48l19.74 50.23h-11.46l-4.33-11.81zm9.7-25.86-6.1 16.5h12.19z"/><path d="m249.38 140.31a5.39 5.39 0 1 1 -5.74 5.38 5.6 5.6 0 0 1 5.74-5.38z"/><path d="m302.71 161.12v9.69h-37.71v-50.23h37v9.69h-26.19v10h20.45v9.73h-20.45v11.12z"/><path d="m313.38 170.81v-50.23h10.76v40.54h23.32v9.69z"/><path d="m378.77 119.51c15.43 0 27.27 11.83 27.27 26.18s-11.84 26.2-27.27 26.2-27.27-11.84-27.27-26.2 11.84-26.18 27.27-26.18zm0 42.69a16.51 16.51 0 1 0 -16.14-16.51 16.16 16.16 0 0 0 16.14 16.51z"/><path d="m409.06 120.58h11.48l12.92 37.31 12.91-37.31h11.48l-18.65 50.23h-11.48z"/><path d="m472.18 159-4.3 11.84h-11.48l19.73-50.23h11.48l19.73 50.23h-11.48l-4.3-11.84zm9.69-25.83-6.1 16.5h12.23z"/><path d="m514.55 120.58h10.76v50.23h-10.76z"/><path d="m583.28 120.58v50.23h-9.28l-24.76-31.93v31.93h-10.81v-50.23h9.33l24.76 31.93v-31.93z"/><path d="m596.56 120.58h10.77v50.23h-10.77z"/><path d="m644.83 119.51c15.42 0 27.27 11.83 27.27 26.18s-11.85 26.2-27.27 26.2-27.27-11.84-27.27-26.2 11.84-26.18 27.27-26.18zm0 42.69a16.51 16.51 0 1 0 -16.14-16.51 16.16 16.16 0 0 0 16.14 16.51z"/><path d="m343.96 53.19h37.29v16.78h-37.29z"/><path d="m343.96 19.63h37.29v16.78h-37.29z"/><path d="m316.91 0v19.63h-37.29v16.78h37.29v16.78h-37.29v16.78h37.29v19.63h14.14v-89.6z"/></g></svg>